# xmcd
#
# Track frame offsets: 
#        150
#        17575
#        38135
#        75310
#        92725
#        112025
#        127252
#        144380
#        175187
#        196145
#
# Disc length: 2827 seconds
#
# Revision: 0
# Processed by: cddbd v1.4b42PL1 Copyright (c) Steve Scherf et al.
# Submitted via: ExactAudioCopy v0.90a11
#
DISCID=7c0b090a
DTITLE=Lubos Andrst Blues Band - Lubos Andrst Blues Band Featuring Ign
DTITLE=atz Netzer and Tonya Graves
DYEAR=1900
DGENRE=
TTITLE0=Juniors Wailing
TTITLE1=Born under a Bad Sign
TTITLE2=Thrill Is Gone
TTITLE3=Walking by Myself
TTITLE4=I Ain't Got Nothin' but the Blues
TTITLE5=Too Tired
TTITLE6=Gospel Ship
TTITLE7=Red House
TTITLE8=Latin Boogie
TTITLE9=Sweet Home Chicago
EXTD=
EXTT0=
EXTT1=
EXTT2=
EXTT3=
EXTT4=
EXTT5=
EXTT6=
EXTT7=
EXTT8=
EXTT9=
PLAYORDER=
